{
  "accessors": [
    {
      "bufferView": 2,
      "componentType": 5126,
      "count": 6191,
      "max": [
        160.555908203125,
        45.01860427856445,
        182.0626983642578
      ],
      "min": [
        -174.3521728515625,
        34.618587493896484,
        -153.09117126464844
      ],
      "type": "VEC3"
    },
    {
      "bufferView": 2,
      "byteOffset": 74292,
      "componentType": 5126,
      "count": 6191,
      "max": [
        1.0,
        1.0,
        1.0
      ],
      "min": [
        -1.0,
        -1.0,
        -1.0
      ],
      "type": "VEC3"
    },
    {
      "bufferView": 1,
      "componentType": 5126,
      "count": 6191,
      "max": [
        0.6572573184967041,
        0.9826985001564026
      ],
      "min": [
        0.5492698550224304,
        0.8747114539146423
      ],
      "type": "VEC2"
    },
    {
      "bufferView": 0,
      "componentType": 5125,
      "count": 27552,
      "type": "SCALAR"
    },
    {
      "bufferView": 2,
      "byteOffset": 148584,
      "componentType": 5126,
      "count": 396,
      "max": [
        13.529815673828125,
        975.0941772460938,
        38.450416564941406
      ],
      "min": [
        -34.39945983886719,
        954.96484375,
        -9.478870391845703
      ],
      "type": "VEC3"
    },
    {
      "bufferView": 2,
      "byteOffset": 153336,
      "componentType": 5126,
      "count": 396,
      "max": [
        0.999937117099762,
        0.9964573383331299,
        0.999937117099762
      ],
      "min": [
        -0.9999371767044067,
        -0.9954149127006531,
        -0.999937117099762
      ],
      "type": "VEC3"
    },
    {
      "bufferView": 1,
      "byteOffset": 49528,
      "componentType": 5126,
      "count": 396,
      "max": [
        0.8469841480255127,
        0.1591348648071289
      ],
      "min": [
        0.5884138345718384,
        0.0698561891913414
      ],
      "type": "VEC2"
    },
    {
      "bufferView": 0,
      "byteOffset": 110208,
      "componentType": 5125,
      "count": 1536,
      "type": "SCALAR"
    },
    {
      "bufferView": 2,
      "byteOffset": 158088,
      "componentType": 5126,
      "count": 312,
      "max": [
        -68.797119140625,
        359.3315734863281,
        133.37132263183594
      ],
      "min": [
        -126.48422241210938,
        348.3316345214844,
        65.3565673828125
      ],
      "type": "VEC3"
    },
    {
      "bufferView": 2,
      "byteOffset": 161832,
      "componentType": 5126,
      "count": 312,
      "max": [
        0.9957695603370667,
        0.9958192706108093,
        0.9955353736877441
      ],
      "min": [
        -0.9958384037017822,
        -0.9958199262619019,
        -0.9946668148040771
      ],
      "type": "VEC3"
    },
    {
      "bufferView": 1,
      "byteOffset": 52696,
      "componentType": 5126,
      "count": 312,
      "max": [
        0.9964905977249146,
        0.08804521709680557
      ],
      "min": [
        0.8148012757301331,
        0.006098460406064987
      ],
      "type": "VEC2"
    },
    {
      "bufferView": 0,
      "byteOffset": 116352,
      "componentType": 5125,
      "count": 1308,
      "type": "SCALAR"
    },
    {
      "bufferView": 2,
      "byteOffset": 165576,
      "componentType": 5126,
      "count": 622,
      "max": [
        112.11798095703125,
        371.10150146484375,
        129.23947143554688
      ],
      "min": [
        -125.38859558105469,
        360.1015319824219,
        -105.87744140625
      ],
      "type": "VEC3"
    },
    {
      "bufferView": 2,
      "byteOffset": 173040,
      "componentType": 5126,
      "count": 622,
      "max": [
        0.9946942925453186,
        0.997197151184082,
        0.9950720071792603
      ],
      "min": [
        -0.9960131049156189,
        -0.9971983432769775,
        -0.9952718019485474
      ],
      "type": "VEC3"
    },
    {
      "bufferView": 1,
      "byteOffset": 55192,
      "componentType": 5126,
      "count": 622,
      "max": [
        0.5244417786598206,
        0.049499064683914185
      ],
      "min": [
        0.037491798400878906,
        0.0019424725323915482
      ],
      "type": "VEC2"
    },
    {
      "bufferView": 0,
      "byteOffset": 121584,
      "componentType": 5125,
      "count": 2796,
      "type": "SCALAR"
    },
    {
      "bufferView": 2,
      "byteOffset": 180504,
      "componentType": 5126,
      "count": 410,
      "max": [
        94.64534759521484,
        60.31775665283203,
        285.7935791015625
      ],
      "min": [
        -278.4815673828125,
        24.91777992248535,
        14.485748291015625
      ],
      "type": "VEC3"
    },
    {
      "bufferView": 2,
      "byteOffset": 185424,
      "componentType": 5126,
      "count": 410,
      "max": [
        0.9953885078430176,
        0.9844667315483093,
        0.9965656399726868
      ],
      "min": [
        -0.9967739582061768,
        -0.9844667911529541,
        -0.9993307590484619
      ],
      "type": "VEC3"
    },
    {
      "bufferView": 1,
      "byteOffset": 60168,
      "componentType": 5126,
      "count": 410,
      "max": [
        0.9953489899635315,
        0.39516186714172363
      ],
      "min": [
        0.005974787287414074,
        0.05246531963348389
      ],
      "type": "VEC2"
    },
    {
      "bufferView": 0,
      "byteOffset": 132768,
      "componentType": 5125,
      "count": 2100,
      "type": "SCALAR"
    },
    {
      "bufferView": 2,
      "byteOffset": 190344,
      "componentType": 5126,
      "count": 3936,
      "max": [
        241.50350952148438,
        144.7086639404297,
        262.76873779296875
      ],
      "min": [
        -254.3555145263672,
        32.24126052856445,
        -154.85101318359375
      ],
      "type": "VEC3"
    },
    {
      "bufferView": 2,
      "byteOffset": 237576,
      "componentType": 5126,
      "count": 3936,
      "max": [
        0.9999969601631165,
        1.0,
        0.9997155070304871
      ],
      "min": [
        -0.9999969601631165,
        -1.0,
        -0.999697208404541
      ],
      "type": "VEC3"
    },
    {
      "bufferView": 1,
      "byteOffset": 63448,
      "componentType": 5126,
      "count": 3936,
      "max": [
        0.9966093301773071,
        0.9942064881324768
      ],
      "min": [
        0.006441848818212748,
        0.17194753885269165
      ],
      "type": "VEC2"
    },
    {
      "bufferView": 0,
      "byteOffset": 141168,
      "componentType": 5125,
      "count": 14736,
      "type": "SCALAR"
    },
    {
      "bufferView": 2,
      "byteOffset": 284808,
      "componentType": 5126,
      "count": 410,
      "max": [
        264.590087890625,
        8.761856079101563,
        110.72636413574219
      ],
      "min": [
        -12.132084846496582,
        -26.638126373291016,
        -257.03753662109375
      ],
      "type": "VEC3"
    },
    {
      "bufferView": 2,
      "byteOffset": 289728,
      "componentType": 5126,
      "count": 410,
      "max": [
        0.9965771436691284,
        0.984758734703064,
        0.9964497685432434
      ],
      "min": [
        -0.9999834299087524,
        -0.9847587943077087,
        -0.9965447187423706
      ],
      "type": "VEC3"
    },
    {
      "bufferView": 1,
      "byteOffset": 94936,
      "componentType": 5126,
      "count": 410,
      "max": [
        0.9953898191452026,
        0.4642159342765808
      ],
      "min": [
        0.005979725159704685,
        0.05246478319168091
      ],
      "type": "VEC2"
    },
    {
      "bufferView": 0,
      "byteOffset": 200112,
      "componentType": 5125,
      "count": 2100,
      "type": "SCALAR"
    },
    {
      "bufferView": 2,
      "byteOffset": 294648,
      "componentType": 5126,
      "count": 212,
      "max": [
        307.32305908203125,
        -108.201171875,
        39.715904235839844
      ],
      "min": [
        160.3687286376953,
        -144.7086639404297,
        -228.27659606933594
      ],
      "type": "VEC3"
    },
    {
      "bufferView": 2,
      "byteOffset": 297192,
      "componentType": 5126,
      "count": 212,
      "max": [
        0.9967088103294373,
        0.9988011717796326,
        0.9989875555038452
      ],
      "min": [
        -0.9965404272079468,
        -0.9988023638725281,
        -0.7526201009750366
      ],
      "type": "VEC3"
    },
    {
      "bufferView": 1,
      "byteOffset": 98216,
      "componentType": 5126,
      "count": 212,
      "max": [
        0.9864263534545898,
        0.9890037775039673
      ],
      "min": [
        0.5514262914657593,
        0.7239695191383362
      ],
      "type": "VEC2"
    },
    {
      "bufferView": 0,
      "byteOffset": 208512,
      "componentType": 5125,
      "count": 1044,
      "type": "SCALAR"
    },
    {
      "bufferView": 2,
      "byteOffset": 299736,
      "componentType": 5126,
      "count": 212,
      "max": [
        -86.4561767578125,
        -73.85005187988281,
        -63.75433349609375
      ],
      "min": [
        -307.357177734375,
        -110.35749816894531,
        -285.889404296875
      ],
      "type": "VEC3"
    },
    {
      "bufferView": 2,
      "byteOffset": 302280,
      "componentType": 5126,
      "count": 212,
      "max": [
        0.9840201139450073,
        0.9987807273864746,
        0.9853990077972412
      ],
      "min": [
        -0.9448621273040771,
        -0.9987807273864746,
        -0.9423805475234985
      ],
      "type": "VEC3"
    },
    {
      "bufferView": 1,
      "byteOffset": 99912,
      "componentType": 5126,
      "count": 212,
      "max": [
        0.9862956404685974,
        0.7806271910667419
      ],
      "min": [
        0.5527721643447876,
        0.5824381113052368
      ],
      "type": "VEC2"
    },
    {
      "bufferView": 0,
      "byteOffset": 212688,
      "componentType": 5125,
      "count": 1044,
      "type": "SCALAR"
    }
  ],
  "asset": {
    "extras": {
      "author": "tiffany.sweet27 (https://sketchfab.com/tiffany.sweet27)",
      "license": "CC-BY-4.0 (http://creativecommons.org/licenses/by/4.0/)",
      "source": "https://sketchfab.com/3d-models/portal-entrance-v03-1d95bb2dcc0244b28da91e68a3e25a15",
      "title": "Portal Entrance V03"
    },
    "generator": "Sketchfab-12.66.0",
    "version": "2.0"
  },
  "bufferViews": [
    {
      "buffer": 0,
      "byteLength": 216864,
      "name": "floatBufferViews",
      "target": 34963
    },
    {
      "buffer": 0,
      "byteLength": 101608,
      "byteOffset": 216864,
      "byteStride": 8,
      "name": "floatBufferViews",
      "target": 34962
    },
    {
      "buffer": 0,
      "byteLength": 304824,
      "byteOffset": 318472,
      "byteStride": 12,
      "name": "floatBufferViews",
      "target": 34962
    }
  ],
  "buffers": [
    {
      "byteLength": 623296,
      "uri": "scene.bin"
    }
  ],
  "materials": [
    {
      "doubleSided": true,
      "name": "Portal",
      "pbrMetallicRoughness": {
        "baseColorFactor": [
          0.5,
          0.5,
          0.5,
          1.0
        ],
        "metallicFactor": 0.0,
        "roughnessFactor": 0.6
      }
    }
  ],
  "meshes": [
    {
      "name": "Spheres_Portal_0",
      "primitives": [
        {
          "attributes": {
            "NORMAL": 1,
            "POSITION": 0,
            "TEXCOORD_0": 2
          },
          "indices": 3,
          "material": 0,
          "mode": 4
        }
      ]
    },
    {
      "name": "RedRing_Portal_0",
      "primitives": [
        {
          "attributes": {
            "NORMAL": 5,
            "POSITION": 4,
            "TEXCOORD_0": 6
          },
          "indices": 7,
          "material": 0,
          "mode": 4
        }
      ]
    },
    {
      "name": "BlueRing_6_Portal_0",
      "primitives": [
        {
          "attributes": {
            "NORMAL": 9,
            "POSITION": 8,
            "TEXCOORD_0": 10
          },
          "indices": 11,
          "material": 0,
          "mode": 4
        }
      ]
    },
    {
      "name": "BlueRing_4_Portal_0",
      "primitives": [
        {
          "attributes": {
            "NORMAL": 13,
            "POSITION": 12,
            "TEXCOORD_0": 14
          },
          "indices": 15,
          "material": 0,
          "mode": 4
        }
      ]
    },
    {
      "name": "BlueRing_1_Portal_0",
      "primitives": [
        {
          "attributes": {
            "NORMAL": 17,
            "POSITION": 16,
            "TEXCOORD_0": 18
          },
          "indices": 19,
          "material": 0,
          "mode": 4
        }
      ]
    },
    {
      "name": "Portal3_Portal_0",
      "primitives": [
        {
          "attributes": {
            "NORMAL": 21,
            "POSITION": 20,
            "TEXCOORD_0": 22
          },
          "indices": 23,
          "material": 0,
          "mode": 4
        }
      ]
    },
    {
      "name": "BlueRing_2_Portal_0",
      "primitives": [
        {
          "attributes": {
            "NORMAL": 25,
            "POSITION": 24,
            "TEXCOORD_0": 26
          },
          "indices": 27,
          "material": 0,
          "mode": 4
        }
      ]
    },
    {
      "name": "WhiteRing_Portal_0",
      "primitives": [
        {
          "attributes": {
            "NORMAL": 29,
            "POSITION": 28,
            "TEXCOORD_0": 30
          },
          "indices": 31,
          "material": 0,
          "mode": 4
        }
      ]
    },
    {
      "name": "BlueRing_3_Portal_0",
      "primitives": [
        {
          "attributes": {
            "NORMAL": 33,
            "POSITION": 32,
            "TEXCOORD_0": 34
          },
          "indices": 35,
          "material": 0,
          "mode": 4
        }
      ]
    }
  ],
  "nodes": [
    {
      "children": [
        1
      ],
      "matrix": [
        1.0,
        0.0,
        0.0,
        0.0,
        0.0,
        2.220446049250313e-16,
        -1.0,
        0.0,
        0.0,
        1.0,
        2.220446049250313e-16,
        0.0,
        0.0,
        0.0,
        0.0,
        1.0
      ],
      "name": "Sketchfab_model"
    },
    {
      "children": [
        2
      ],
      "matrix": [
        1.0,
        0.0,
        0.0,
        0.0,
        0.0,
        0.0,
        1.0,
        0.0,
        0.0,
        -1.0,
        0.0,
        0.0,
        0.0,
        0.0,
        0.0,
        1.0
      ],
      "name": "a860818e00a64764bb144567d257e301.fbx"
    },
    {
      "children": [
        3
      ],
      "name": "RootNode"
    },
    {
      "children": [
        4,
        6,
        8,
        10,
        12,
        14,
        16,
        18,
        20
      ],
      "matrix": [
        0.009999999776482582,
        0.0,
        0.0,
        0.0,
        0.0,
        0.009999999776482582,
        0.0,
        0.0,
        0.0,
        0.0,
        0.009999999776482582,
        0.0,
        0.0,
        0.0,
        0.0,
        1.0
      ],
      "name": "Portal_Grp"
    },
    {
      "children": [
        5
      ],
      "matrix": [
        1.0,
        0.0,
        0.0,
        0.0,
        0.0,
        2.220446049250313e-16,
        -1.0,
        0.0,
        0.0,
        1.0,
        2.220446049250313e-16,
        0.0,
        0.0,
        0.0,
        0.0,
        1.0
      ],
      "name": "Spheres"
    },
    {
      "mesh": 0,
      "name": "Spheres_Portal_0"
    },
    {
      "children": [
        7
      ],
      "matrix": [
        1.0,
        0.0,
        0.0,
        0.0,
        0.0,
        2.220446049250313e-16,
        -1.0,
        0.0,
        0.0,
        1.0,
        2.220446049250313e-16,
        0.0,
        0.0,
        -1.1368683772161603e-13,
        0.0,
        1.0
      ],
      "name": "RedRing"
    },
    {
      "mesh": 1,
      "name": "RedRing_Portal_0"
    },
    {
      "children": [
        9
      ],
      "matrix": [
        1.0,
        0.0,
        0.0,
        0.0,
        0.0,
        2.220446049250313e-16,
        -1.0,
        0.0,
        0.0,
        1.0,
        2.220446049250313e-16,
        0.0,
        0.0,
        -2.842170943040401e-14,
        0.0,
        1.0
      ],
      "name": "BlueRing_6"
    },
    {
      "mesh": 2,
      "name": "BlueRing_6_Portal_0"
    },
    {
      "children": [
        11
      ],
      "matrix": [
        1.0,
        0.0,
        0.0,
        0.0,
        0.0,
        2.220446049250313e-16,
        -1.0,
        0.0,
        0.0,
        1.0,
        2.220446049250313e-16,
        0.0,
        0.0,
        0.0,
        0.0,
        1.0
      ],
      "name": "BlueRing_4"
    },
    {
      "mesh": 3,
      "name": "BlueRing_4_Portal_0"
    },
    {
      "children": [
        13
      ],
      "matrix": [
        1.0,
        0.0,
        0.0,
        0.0,
        0.0,
        2.220446049250313e-16,
        -1.0,
        0.0,
        0.0,
        1.0,
        2.220446049250313e-16,
        0.0,
        0.0,
        0.0,
        0.0,
        1.0
      ],
      "name": "BlueRing_1"
    },
    {
      "mesh": 4,
      "name": "BlueRing_1_Portal_0"
    },
    {
      "children": [
        15
      ],
      "matrix": [
        1.0,
        0.0,
        0.0,
        0.0,
        0.0,
        2.220446049250313e-16,
        -1.0,
        0.0,
        0.0,
        1.0,
        2.220446049250313e-16,
        0.0,
        0.0,
        -7.105427357601002e-15,
        0.0,
        1.0
      ],
      "name": "Portal3"
    },
    {
      "mesh": 5,
      "name": "Portal3_Portal_0"
    },
    {
      "children": [
        17
      ],
      "matrix": [
        1.0,
        0.0,
        0.0,
        0.0,
        0.0,
        2.220446049250313e-16,
        -1.0,
        0.0,
        0.0,
        1.0,
        2.220446049250313e-16,
        0.0,
        0.0,
        0.0,
        0.0,
        1.0
      ],
      "name": "BlueRing_2"
    },
    {
      "mesh": 6,
      "name": "BlueRing_2_Portal_0"
    },
    {
      "children": [
        19
      ],
      "matrix": [
        1.0,
        0.0,
        0.0,
        0.0,
        0.0,
        2.220446049250313e-16,
        -1.0,
        0.0,
        0.0,
        1.0,
        2.220446049250313e-16,
        0.0,
        0.0,
        1.4210854715202004e-14,
        0.0,
        1.0
      ],
      "name": "WhiteRing"
    },
    {
      "mesh": 7,
      "name": "WhiteRing_Portal_0"
    },
    {
      "children": [
        21
      ],
      "matrix": [
        1.0,
        0.0,
        0.0,
        0.0,
        0.0,
        2.220446049250313e-16,
        -1.0,
        0.0,
        0.0,
        1.0,
        2.220446049250313e-16,
        0.0,
        0.0,
        0.0,
        0.0,
        1.0
      ],
      "name": "BlueRing_3"
    },
    {
      "mesh": 8,
      "name": "BlueRing_3_Portal_0"
    }
  ],
  "scene": 0,
  "scenes": [
    {
      "name": "Sketchfab_Scene",
      "nodes": [
        0
      ]
    }
  ]
}
